<svg width="32" height="32" viewBox="0 0 32 32" fill="none" xmlns="http://www.w3.org/2000/svg">
<path d="M2.93172 17.687C2.12965 17.687 0 17.7423 0 19.3741C0 20.3422 0.802074 20.8677 1.65946 20.8677C2.82109 20.8677 3.2083 19.8996 3.2083 19.8996H3.23595C3.23595 19.8996 3.2083 20.0656 3.2083 20.2868V20.757H4.06569V17.6594C4.06569 16.4148 3.37424 15.751 2.1573 15.751C1.05099 15.751 0.359551 16.3318 0.359551 16.3318L0.746759 17.0232C0.746759 17.0232 1.35523 16.5531 2.10199 16.5531C2.71046 16.5531 3.15298 16.8296 3.15298 17.6317V17.7147H2.93172V17.687ZM3.15298 18.4061V18.5721C3.15298 19.2912 2.65514 20.1209 1.85307 20.1209C1.2446 20.1209 0.940363 19.7337 0.940363 19.3465C0.940363 18.4614 2.21262 18.4338 2.90406 18.4338H3.15298V18.4061Z" fill="black"/>
<path d="M6.33343 20.4804C6.33343 20.2315 6.30577 20.0655 6.30577 20.0655H6.33343C6.33343 20.0655 6.7483 20.8676 7.82695 20.8676C9.0992 20.8676 10.0119 19.8719 10.0119 18.3231C10.0119 16.8019 9.18218 15.7786 7.88226 15.7786C6.66532 15.7786 6.25046 16.6636 6.25046 16.6636H6.2228C6.2228 16.6636 6.25046 16.4977 6.25046 16.3041V15.8892H5.39307V22.6377H6.33343V20.4804ZM7.68866 16.553C8.49073 16.553 9.07154 17.2444 9.07154 18.2954C9.07154 19.4017 8.43542 20.0379 7.661 20.0379C6.77595 20.0379 6.27811 19.1805 6.27811 18.2954C6.30577 17.0785 6.96956 16.553 7.68866 16.553Z" fill="black"/>
<path d="M12.0312 18.7381C12.0312 18.4339 12.0588 18.1296 12.1418 17.8531C12.3631 17.134 12.9162 16.7191 13.497 16.7191C13.6353 16.7191 13.7736 16.7468 13.7736 16.7468V15.8341C13.7736 15.8341 13.663 15.8064 13.5247 15.8064C12.7779 15.8064 12.2248 16.3596 12.0035 17.0787H11.9759C11.9759 17.0787 12.0035 16.9127 12.0035 16.7191V15.8617H11.0908V20.7295H12.0312V18.7381Z" fill="black"/>
<path d="M14.8525 15.8616H15.7929V20.7293H14.8525V15.8616Z" fill="black"/>
<path d="M18.116 16.8574C18.116 16.8574 18.1437 16.6914 18.1437 16.4978V15.8617H17.231V20.7294H18.1713V18.4892C18.1713 18.2679 18.1713 18.0466 18.2266 17.853C18.4202 17.1616 18.9181 16.5808 19.6095 16.5808C20.3563 16.5808 20.4393 17.1616 20.4393 17.7977V20.7294H21.3796V18.4892C21.3796 18.2402 21.4073 18.019 21.4349 17.8254C21.6009 17.1616 22.1264 16.5808 22.7902 16.5808C23.5093 16.5808 23.6476 17.1339 23.6476 17.7977V20.7294H24.5879V17.6041C24.5879 16.3595 24.0901 15.7234 22.9838 15.7234C22.2093 15.7234 21.5179 16.2489 21.269 16.8297H21.2413C21.0754 16.1106 20.6052 15.7234 19.7755 15.7234C19.0287 15.751 18.3649 16.3042 18.116 16.8574Z" fill="url(#paint0_linear_35_4762)"/>
<path d="M25.6387 18.2955C25.6387 19.789 26.8003 20.8677 28.2662 20.8677C29.7044 20.8677 30.8936 19.789 30.8936 18.2955C30.8936 16.8296 29.732 15.751 28.2662 15.751C26.8003 15.751 25.6387 16.8296 25.6387 18.2955ZM28.2385 16.5531C29.1512 16.5531 29.898 17.2722 29.898 18.2955C29.898 19.3188 29.1512 20.0379 28.2385 20.0379C27.3258 20.0379 26.579 19.3188 26.579 18.2955C26.579 17.2722 27.3258 16.5531 28.2385 16.5531Z" fill="url(#paint1_linear_35_4762)"/>
<path d="M30.9766 16.47H31.0596V15.9169H31.2809V15.8616H30.7554V15.9169H30.9766V16.47Z" fill="url(#paint2_linear_35_4762)"/>
<path d="M31.4746 16.0829V15.9999C31.4746 15.9999 31.5022 16.0552 31.5022 16.0829L31.6405 16.3595H31.7235L31.8618 16.0829C31.8894 16.0552 31.8894 15.9999 31.8894 15.9999V16.0829L31.9171 16.4701H32.0001L31.9448 15.834H31.8618L31.7235 16.1659C31.6958 16.1935 31.6958 16.2489 31.6958 16.2489C31.6958 16.2489 31.6682 16.1935 31.6682 16.1659L31.5299 15.834H31.4469L31.3916 16.4701H31.4746V16.0829Z" fill="url(#paint3_linear_35_4762)"/>
<path d="M15.3223 13.2896C14.9904 13.2896 14.7139 13.5661 14.7139 13.898C14.7139 14.2299 14.9904 14.5065 15.3223 14.5065C15.6542 14.5065 15.9308 14.2299 15.9308 13.898C15.9308 13.5661 15.6542 13.2896 15.3223 13.2896Z" fill="url(#paint4_linear_35_4762)"/>
<path d="M17.3139 10.9939C16.7884 10.9939 16.3735 11.4088 16.3735 11.9343C16.3735 12.4598 16.7884 12.8746 17.3139 12.8746C17.8394 12.8746 18.2543 12.4598 18.2543 11.9343C18.2543 11.4088 17.8394 10.9939 17.3139 10.9939Z" fill="url(#paint5_linear_35_4762)"/>
<path d="M20.7432 9.36206C19.9688 9.36206 19.3604 9.97053 19.3604 10.7449C19.3604 11.5194 19.9688 12.1278 20.7432 12.1278C21.5177 12.1278 22.1261 11.5194 22.1261 10.7449C22.1261 9.97053 21.49 9.36206 20.7432 9.36206Z" fill="url(#paint6_linear_35_4762)"/>
<path d="M25.3621 10.3301C24.394 10.3301 23.6196 11.1045 23.6196 12.0725C23.6196 13.0405 24.394 13.815 25.3621 13.815C26.3301 13.815 27.1045 13.0405 27.1045 12.0725C27.1045 11.1045 26.3024 10.3301 25.3621 10.3301Z" fill="url(#paint7_linear_35_4762)"/>
<defs>
<linearGradient id="paint0_linear_35_4762" x1="11.3269" y1="24.9705" x2="41.3012" y2="34.6482" gradientUnits="userSpaceOnUse">
<stop offset="0.045"/>
<stop offset="1"/>
</linearGradient>
<linearGradient id="paint1_linear_35_4762" x1="12.0609" y1="22.6958" x2="42.0353" y2="32.3736" gradientUnits="userSpaceOnUse">
<stop offset="0.045"/>
<stop offset="1"/>
</linearGradient>
<linearGradient id="paint2_linear_35_4762" x1="12.9573" y1="19.9198" x2="42.9317" y2="29.5975" gradientUnits="userSpaceOnUse">
<stop offset="0.045"/>
<stop offset="1"/>
</linearGradient>
<linearGradient id="paint3_linear_35_4762" x1="13.0064" y1="19.7683" x2="42.9807" y2="29.4463" gradientUnits="userSpaceOnUse">
<stop offset="0.045"/>
<stop offset="1"/>
</linearGradient>
<linearGradient id="paint4_linear_35_4762" x1="24.8338" y1="26.7992" x2="37.1426" y2="26.7992" gradientUnits="userSpaceOnUse">
<stop offset="0.045"/>
<stop offset="1"/>
</linearGradient>
<linearGradient id="paint5_linear_35_4762" x1="24.834" y1="24.8319" x2="37.1428" y2="24.8319" gradientUnits="userSpaceOnUse">
<stop offset="0.045"/>
<stop offset="1"/>
</linearGradient>
<linearGradient id="paint6_linear_35_4762" x1="24.8338" y1="23.6263" x2="37.1426" y2="23.6263" gradientUnits="userSpaceOnUse">
<stop offset="0.045"/>
<stop offset="1"/>
</linearGradient>
<linearGradient id="paint7_linear_35_4762" x1="24.8338" y1="24.9483" x2="37.1426" y2="24.9483" gradientUnits="userSpaceOnUse">
<stop offset="0.045"/>
<stop offset="1"/>
</linearGradient>
</defs>
</svg>
