<svg width="16" height="16" viewBox="0 0 16 16" fill="none" xmlns="http://www.w3.org/2000/svg">
<path d="M14.4445 3.99999H1.55558C1.18758 3.99999 0.888916 3.70132 0.888916 3.33332C0.888916 2.96532 1.18758 2.66666 1.55558 2.66666H14.4445C14.8125 2.66666 15.1111 2.96532 15.1111 3.33332C15.1111 3.70132 14.8125 3.99999 14.4445 3.99999ZM15.1111 8.22221C15.1111 7.85421 14.8125 7.55555 14.4445 7.55555H1.55558C1.18758 7.55555 0.888916 7.85421 0.888916 8.22221C0.888916 8.59021 1.18758 8.88888 1.55558 8.88888H14.4445C14.8125 8.88888 15.1111 8.59021 15.1111 8.22221ZM15.1111 13.1111C15.1111 12.7431 14.8125 12.4444 14.4445 12.4444H1.55558C1.18758 12.4444 0.888916 12.7431 0.888916 13.1111C0.888916 13.4791 1.18758 13.7778 1.55558 13.7778H14.4445C14.8125 13.7778 15.1111 13.4791 15.1111 13.1111Z" fill="black"/>
</svg>
